<?xml version="1.0" encoding="utf-8"?>
<!-- Generator: Adobe Illustrator 16.0.3, SVG Export Plug-In . SVG Version: 6.00 Build 0)  -->
<!DOCTYPE svg PUBLIC "-//W3C//DTD SVG 1.1//EN" "http://www.w3.org/Graphics/SVG/1.1/DTD/svg11.dtd">
<svg version="1.1" id="Layer_1" xmlns="http://www.w3.org/2000/svg" xmlns:xlink="http://www.w3.org/1999/xlink" x="0px" y="0px"
	 width="600px" height="600px" viewBox="0 0 600 600" enable-background="new 0 0 600 600" xml:space="preserve">
<radialGradient id="SVGID_1_" cx="295.3188" cy="420.6787" r="212.5693" gradientTransform="matrix(0.0185 0.9797 0.8866 -0.0168 -179.1743 -96.3113)" gradientUnits="userSpaceOnUse">
	<stop  offset="0.0564" style="stop-color:#FFFFFF"/>
	<stop  offset="0.2218" style="stop-color:#7E7F82"/>
	<stop  offset="0.9135" style="stop-color:#000000"/>
</radialGradient>
<path fill="url(#SVGID_1_)" d="M198.877,198.878c55.847-55.848,146.396-55.849,202.244-0.001c55.849,55.85,55.848,146.398,0,202.246
	c-55.847,55.849-146.397,55.848-202.245-0.001C143.027,345.273,143.028,254.728,198.877,198.878z M300,2.5
	C135.694,2.5,2.5,135.694,2.5,300c0,164.306,133.194,297.5,297.5,297.5c164.306,0,297.5-133.194,297.5-297.5
	C597.5,135.694,464.306,2.5,300,2.5z"/>
<linearGradient id="SVGID_2_" gradientUnits="userSpaceOnUse" x1="74.082" y1="364.1367" x2="384.084" y2="364.1367" gradientTransform="matrix(-0.7071 -0.7071 -0.7071 0.7071 719.4661 204.5037)">
	<stop  offset="0" style="stop-color:#BFBFBF"/>
	<stop  offset="1" style="stop-color:#000000"/>
</linearGradient>
<circle fill="none" stroke="url(#SVGID_2_)" stroke-width="15" stroke-miterlimit="10" cx="300" cy="300" r="147.5"/>
</svg>
